<?xml version="1.0" standalone="no"?>
<!DOCTYPE svg PUBLIC "-//W3C//DTD SVG 20010904//EN"
 "http://www.w3.org/TR/2001/REC-SVG-20010904/DTD/svg10.dtd">
<svg version="1.0" xmlns="http://www.w3.org/2000/svg"
 width="570.000000pt" height="570.000000pt" viewBox="0 0 570.000000 570.000000"
 preserveAspectRatio="xMidYMid meet">
<metadata>
Created by potrace 1.14, written by Peter Selinger 2001-2017
</metadata>
<g transform="translate(0.000000,570.000000) scale(0.100000,-0.100000)"
fill="#000000" stroke="none">
<path d="M503 5509 c-17 -5 -43 -23 -57 -40 l-26 -31 0 -1659 0 -1659 -180
-723 c-100 -397 -195 -765 -211 -817 -20 -61 -28 -105 -25 -124 9 -42 124
-243 149 -261 19 -13 343 -15 2681 -15 l2659 0 36 38 c72 76 160 202 167 240
4 20 2 64 -4 97 -6 33 -83 430 -171 883 -116 599 -165 832 -180 858 -21 35
-21 35 -21 1575 0 1723 6 1594 -72 1629 -42 19 -85 20 -2378 19 -1384 -1
-2348 -5 -2367 -10z m4697 -1624 l0 -1515 -2317 -2 c-1275 -2 -2325 -5 -2333
-8 -13 -4 -15 168 -18 1505 -1 831 0 1516 3 1523 3 9 480 12 2335 12 l2330 0
0 -1515z m39 -1648 c6 -8 80 -375 165 -815 85 -441 160 -819 165 -839 6 -21
11 -53 11 -70 l0 -33 -2731 0 -2730 0 6 23 c4 12 15 45 24 72 10 28 107 408
216 845 109 437 205 803 213 813 14 16 138 17 2332 17 1928 0 2319 -2 2329
-13z"/>
<path d="M707 5219 c-49 -29 -47 23 -47 -1334 0 -1164 1 -1269 17 -1295 9 -16
27 -33 40 -39 17 -8 645 -11 2159 -11 l2136 0 28 28 c19 19 30 43 35 73 3 24
5 603 3 1286 l-3 1242 -29 30 -30 31 -2145 0 c-1439 -1 -2152 -4 -2164 -11z"/>
<path d="M760 2151 l-35 -18 -62 -389 c-33 -214 -69 -409 -78 -434 -19 -51
-10 -104 24 -134 49 -44 65 -45 701 -46 333 0 791 3 1018 7 l412 6 0 24 0 23
-1020 0 c-893 0 -1025 2 -1050 15 -32 16 -47 54 -34 82 6 14 9 10 13 -17 l6
-35 650 -2 c358 -1 853 -2 1100 -3 248 -1 598 -2 778 -1 l328 1 -3 118 -3 117
-779 3 c-535 1 -783 -1 -792 -8 -8 -8 -14 -8 -19 0 -9 15 -305 14 -305 -1 0
-8 -4 -8 -13 0 -20 16 -627 15 -627 -1 0 -9 -3 -9 -12 0 -8 8 -55 12 -146 12
l-134 0 6 31 c3 17 7 39 7 48 1 9 4 0 8 -19 l6 -35 2200 0 2200 0 3 109 c2 90
0 111 -13 118 -12 7 -15 28 -15 98 0 49 -5 92 -10 95 -6 3 -10 39 -10 79 0 50
-4 77 -14 85 -10 8 -419 11 -1547 11 -2838 0 -2724 -1 -2711 12 9 9 517 12
2131 12 1872 1 2122 -1 2134 -14 9 -9 43 -178 86 -425 40 -225 79 -434 88
-464 14 -51 13 -56 -5 -80 -10 -14 -36 -36 -58 -48 l-39 -23 -495 3 -495 2 -3
40 c-1 22 -5 50 -7 63 l-5 22 -625 0 -625 0 0 -25 0 -25 243 -1 c133 -1 404
-4 602 -8 l360 -6 3 -50 c2 -27 8 -55 14 -62 8 -10 120 -13 522 -13 l512 0 52
26 c28 14 65 41 82 61 28 32 31 41 27 82 -5 48 -164 923 -173 953 -2 9 -20 23
-38 32 -31 14 -234 16 -2158 16 -2054 0 -2124 -1 -2158 -19z"/>
<path d="M3530 1350 l0 -120 314 0 c275 0 315 2 320 16 11 30 7 199 -6 212
-17 17 -308 17 -308 0 0 -9 -3 -9 -12 0 -8 8 -58 12 -160 12 l-148 0 0 -120z"/>
<path d="M4480 1395 l0 -75 -145 0 -145 0 0 -104 c0 -85 3 -105 16 -110 20 -8
279 -8 286 0 4 3 84 6 178 6 94 0 174 -3 178 -6 9 -9 275 -7 290 2 9 6 12 34
10 103 l-3 94 -170 1 -170 2 -5 78 -5 79 -157 3 -158 3 0 -76z"/>
</g>
</svg>
